# xmcd CD database file
#
# Track frame offsets:
#	150
#	17880
#	40165
#	57135
#	72344
#	91252
#	107794
#	128682
#	147246
#	162361
#	182334
#	203035
#	219078
#	235214
#	251169
#	260869
#	276079
#	294075
#	297791
#
# Disc length: 4018 seconds
#
# Revision: 0
# Processed by: cddbd v1.5.1PL0 Copyright (c) Steve Scherf et al.
# Submitted via: CDex 1.51
#
DISCID=160fb013
DTITLE=岩井由紀子 - (DISK 3)
DYEAR=2004
DGENRE=Vocal
TTITLE0=3℃
TTITLE1=マグネット・マジック
TTITLE2=真っ赤なミニスカート
TTITLE3=窓から見てるP・T・A
TTITLE4=見てしまった
TTITLE5=メトロポリス・ハネムーン
TTITLE6=もう一度ピーターパン
TTITLE7=モナリザのいたずら
TTITLE8=夢見るチャンネル
TTITLE9=夢よ開けゴマ！
TTITLE10=夜空のメニュー
TTITLE11=ロイヤル ストレート クラッシュ
TTITLE12=ロマンティック マーケット
TTITLE13=割ってしまった卵
TTITLE14=ゆうゆのアドリブソング
TTITLE15=アッというMAにMEっ！
TTITLE16=3℃
TTITLE17=ゆうゆ式部の和歌と口上
TTITLE18=ゆうゆの暑中見舞い
EXTD=YEAR: 2004
EXTT0=
EXTT1=
EXTT2=
EXTT3=
EXTT4=
EXTT5=
EXTT6=
EXTT7=
EXTT8=
EXTT9=
EXTT10=
EXTT11=
EXTT12=
EXTT13=
EXTT14=
EXTT15=
EXTT16=
EXTT17=
EXTT18=
PLAYORDER=
